HIERARCHY
ROOT hip
{
	OFFSET 0.000000 0.000000 0.000000 
	CHANNELS 6 Xposition Yposition Zposition Xrotation Zrotation Yrotation
	JOINT abdomen
	{
		OFFSET 0.000000 3.402643 0.000000 
		CHANNELS 3 Xrotation Zrotation Yrotation
		JOINT chest
		{
			OFFSET 0.000000 8.438565 -0.680529 
			CHANNELS 3 Xrotation Zrotation Yrotation
			JOINT neck
			{
				OFFSET 0.000000 10.207942 -0.272212 
				CHANNELS 3 Xrotation Zrotation Yrotation
				JOINT head
				{
					OFFSET 0.000000 3.130431 0.000000 
					CHANNELS 3 Xrotation Zrotation Yrotation
					End Site
					{
						OFFSET 0.000000 3.130435 0.000000 
					}
				}
			}
			JOINT lCollar
			{
				OFFSET 3.470700 6.669187 -0.816635 
				CHANNELS 3 Yrotation Zrotation Xrotation
				JOINT lShldr
				{
					OFFSET 3.198488 0.000000 0.000000 
					CHANNELS 3 Zrotation Yrotation Xrotation
					JOINT lForeArm
					{
						OFFSET 10.139888 0.000000 0.000000 
						CHANNELS 3 Yrotation Zrotation Xrotation
						JOINT lHand
						{
							OFFSET 8.370511 0.000000 0.000000 
							CHANNELS 3 Zrotation Yrotation Xrotation
							End Site
							{
								OFFSET 4.083176 0.000000 0.000000 
							}
						}
					}
				}
			}
			JOINT rCollar
			{
				OFFSET -3.470700 6.669187 -0.816635 
				CHANNELS 3 Yrotation Zrotation Xrotation
				JOINT rShldr
				{
					OFFSET -3.198488 0.000000 0.000000 
					CHANNELS 3 Zrotation Yrotation Xrotation
					JOINT rForeArm
					{
						OFFSET -10.139888 0.000000 0.000000 
						CHANNELS 3 Yrotation Zrotation Xrotation
						JOINT rHand
						{
							OFFSET -8.370511 0.000000 0.000000 
							CHANNELS 3 Zrotation Yrotation Xrotation
							End Site
							{
								OFFSET -4.083176 0.000000 0.000000 
							}
						}
					}
				}
			}
		}
	}
	JOINT lThigh
	{
		OFFSET 5.308129 -1.633274 1.361059 
		CHANNELS 3 Xrotation Zrotation Yrotation
		JOINT lShin
		{
			OFFSET -2.041588 -20.007561 0.000000 
			CHANNELS 3 Xrotation Zrotation Yrotation
			JOINT lFoot
			{
				OFFSET 0.000000 -19.190928 -1.224953 
				CHANNELS 3 Xrotation Yrotation Zrotation
				End Site
				{
					OFFSET 0.000000 -2.449906 4.627600 
				}
			}
		}
	}
	JOINT rThigh
	{
		OFFSET -5.308129 -1.633274 1.361059 
		CHANNELS 3 Xrotation Zrotation Yrotation
		JOINT rShin
		{
			OFFSET 2.041588 -20.007561 0.000000 
			CHANNELS 3 Xrotation Zrotation Yrotation
			JOINT rFoot
			{
				OFFSET 0.000000 -19.190928 -1.224953 
				CHANNELS 3 Xrotation Yrotation Zrotation
				End Site
				{
					OFFSET 0.000000 -2.449906 4.627600 
				}
			}
		}
	}
}
MOTION
Frames: 6
Frame Time: 0.033333
-1.568391 50.265541 4.159705 0.634862 -0.009765 -0.566408 0.000000 0.000000 0.000000 -10.400392 0.000000 -2.822265 13.168123 -1.689397 -0.469122 -2.412905 1.191360 -0.507906 -3.521967 9.154817 6.304141 -30.459492 24.667202 -47.846085 -18.451723 8.472656 39.592915 3.594615 6.931427 -8.355815 3.089181 -14.089146 8.026228 30.847845 -12.945462 -41.939156 10.871798 -10.779481 52.415188 7.115529 -6.671532 -8.166759 0.984980 7.075537 10.132066 8.909642 -1.972321 -8.902593 -5.912760 0.163711 -0.918797 1.288349 -5.761330 -14.367499 9.159184 1.442892 -1.220279 -7.579810 0.050671 -1.358898 
-1.575916 50.257965 4.183880 0.556346 0.029295 -0.576172 0.000000 0.000000 0.000000 -10.368269 -0.058526 -2.763680 13.540715 -1.728448 -0.508171 -2.698512 1.288997 -0.576246 -3.521967 9.154817 6.304141 -30.375849 24.519165 -47.694263 -18.416821 8.448557 39.865173 3.379300 7.065038 -8.339942 3.089181 -14.089146 8.026228 30.941540 -12.931352 -42.029823 10.899641 -10.824697 52.759682 6.891836 -6.796453 -8.198814 1.152153 7.020799 10.087568 8.799023 -1.933173 -8.855509 -5.833615 0.156210 -0.964552 1.404227 -5.815134 -14.469007 9.217201 1.501281 -1.164851 -7.667768 0.078491 -1.410832 
-1.587840 50.259380 4.192254 0.566220 0.019530 -0.546875 0.000000 0.000000 0.000000 -10.355599 -0.117047 -2.802748 13.237107 -1.513603 -0.547200 -2.296213 1.201121 -0.527433 -3.521967 9.154817 6.304141 -30.349434 24.444679 -47.776222 -18.451855 8.473462 39.654011 3.448019 6.688985 -8.331999 3.089181 -14.089146 8.026228 31.078901 -12.869280 -42.118191 10.917846 -10.882400 52.781200 6.553764 -6.603329 -8.194364 1.151328 7.058557 10.110339 8.806549 -1.942870 -8.875676 -5.863448 0.165493 -0.949889 1.423299 -5.785198 -14.456470 9.150972 1.499725 -1.246194 -7.657634 0.063226 -1.396349 
-1.599432 50.262222 4.200918 0.634471 0.029295 -0.576172 0.000000 0.000000 0.000000 -10.421597 -0.165818 -2.792985 12.904640 -1.787054 -0.449609 -1.919225 1.435469 -0.595761 -3.521967 9.154817 6.304141 -30.242924 24.435762 -47.724384 -18.396309 8.453850 39.929535 3.414722 6.584980 -8.334298 3.089181 -14.089146 8.026228 31.048811 -12.807680 -42.091702 10.908984 -10.855271 52.655357 6.591834 -6.403448 -8.160317 1.101494 7.044798 10.070131 8.801347 -1.933260 -8.777581 -5.892336 0.158837 -0.963513 1.385655 -5.789222 -14.437502 9.126612 1.510427 -1.168880 -7.619060 0.062333 -1.375164 
-1.618171 50.260799 4.227264 0.606168 -0.058590 -0.683603 0.000000 0.000000 0.000000 -10.408758 -0.029264 -2.734379 12.514056 -1.962840 -0.410585 -1.215998 1.425704 -0.595762 -3.521967 9.154817 6.304141 -30.266399 24.439001 -47.753700 -18.440962 8.464864 39.612865 3.026394 6.761216 -8.314200 3.089181 -14.089146 8.026228 30.977083 -12.805503 -42.168793 10.976693 -10.887568 52.795807 6.000991 -6.282091 -8.172665 1.142326 7.137852 10.106702 8.880595 -1.884547 -8.759538 -5.892732 0.174964 -0.967085 1.462538 -5.688013 -14.398609 9.016895 1.529379 -1.241616 -7.542379 0.073360 -1.337675 
-1.636666 50.266949 4.230763 0.695037 -0.117175 -0.820331 0.000000 0.000000 0.000000 -10.285341 0.048781 -2.509765 11.292996 -1.826120 -0.430092 0.242347 1.210882 -0.546959 -3.521967 9.154817 6.304141 -30.324274 24.347084 -48.124378 -18.554068 8.539062 39.280529 2.747413 6.539567 -8.299522 3.089181 -14.089146 8.026228 30.975502 -13.079124 -42.174171 10.969046 -10.852924 52.544819 5.673989 -6.304126 -8.193606 1.073532 7.243524 10.194071 8.905297 -1.923498 -8.694588 -5.931580 0.173453 -0.978463 1.403244 -5.597208 -14.362350 8.939923 1.559082 -1.175551 -7.434560 0.059712 -1.322055 
